<svg width="967" height="216" viewBox="0 0 967 216" fill="none" xmlns="http://www.w3.org/2000/svg">
<path fill-rule="evenodd" clip-rule="evenodd" d="M0 82.878L30.8651 114.831C60.7345 146.784 122.465 211.688 183.199 215.682C243.934 220.675 304.668 165.756 366.398 123.818C427.133 82.878 487.867 54.9191 548.602 54.9191C610.332 54.9191 671.066 82.878 731.801 86.8721C792.535 91.8648 854.265 73.8912 884.135 63.9059L913 49.5L933 34L967 0H915H884.135C854.265 0 792.535 0 731.801 0C671.066 0 610.332 0 548.602 0C487.867 0 427.133 0 366.398 0C304.668 0 243.934 0 183.199 0C122.465 0 60.7345 0 30.8651 0H0V82.878Z" fill="#2B5E2E"/>
</svg>
