<svg width="418" height="418" viewBox="0 0 418 418" fill="none" xmlns="http://www.w3.org/2000/svg">
<path d="M393.756 136.239C386.15 133.839 379.106 129.932 373.045 124.75C366.983 119.568 362.027 113.217 358.474 106.078C354.921 98.9377 352.843 91.1554 352.365 83.1946C351.886 75.2342 353.016 67.2587 355.689 59.7448C360.202 63.1255 364.371 66.9419 368.137 71.1394C380.974 85.4141 388.849 103.656 392.209 123.214C392.934 127.505 393.45 131.847 393.756 136.239Z" stroke="#98BB63" stroke-width="2" stroke-miterlimit="10"/>
<path d="M60.5181 350.447V262.157C60.516 261.821 60.58 261.489 60.7066 261.179C60.8333 260.868 61.0201 260.585 61.2563 260.347C61.4925 260.109 61.7734 259.92 62.0827 259.791C62.3924 259.662 62.7243 259.595 63.0596 259.594H150.869C151.653 259.593 152.431 259.747 153.156 260.047C153.881 260.347 154.54 260.787 155.095 261.342C155.65 261.896 156.09 262.555 156.39 263.28C156.689 264.006 156.843 264.783 156.842 265.568V318.052" stroke="#98BB63" stroke-width="2" stroke-miterlimit="10"/>
<path d="M60.5181 350.447V305.537H156.825V318.052" stroke="#98BB63" stroke-width="2" stroke-miterlimit="10"/>
<path d="M133.162 352.278H61.4961" stroke="#98BB63" stroke-width="2" stroke-miterlimit="10"/>
<path d="M108.676 335.918C112.552 335.918 115.694 332.776 115.694 328.9C115.694 325.023 112.552 321.881 108.676 321.881C104.8 321.881 101.657 325.023 101.657 328.9C101.657 332.776 104.8 335.918 108.676 335.918Z" stroke="#98BB63" stroke-width="2" stroke-miterlimit="10"/>
<path d="M108.676 291.061C112.552 291.061 115.694 287.919 115.694 284.043C115.694 280.167 112.552 277.024 108.676 277.024C104.8 277.024 101.657 280.167 101.657 284.043C101.657 287.919 104.8 291.061 108.676 291.061Z" stroke="#98BB63" stroke-width="2" stroke-miterlimit="10"/>
<path d="M108.676 383.206C112.552 383.206 115.694 380.064 115.694 376.187C115.694 372.311 112.552 369.169 108.676 369.169C104.8 369.169 101.657 372.311 101.657 376.187C101.657 380.064 104.8 383.206 108.676 383.206Z" stroke="#98BB63" stroke-width="2" stroke-miterlimit="10"/>
<path d="M150.873 259.578H52.2249V249.826C53.5207 249.516 164.826 249.826 164.826 249.826V259.578H150.873Z" stroke="#98BB63" stroke-width="2" stroke-miterlimit="10"/>
<path d="M127.072 221.227L122.545 246.62C122.418 247.332 122.046 247.976 121.492 248.441C120.937 248.906 120.238 249.161 119.515 249.162H95.7931C95.0628 249.162 94.3564 248.903 93.7996 248.43C93.2429 247.958 92.8721 247.303 92.7542 246.582L88.5742 221.243L127.072 221.227Z" stroke="#98BB63" stroke-width="2" stroke-miterlimit="10"/>
<path d="M131.398 218.392C131.335 219.164 130.984 219.884 130.415 220.409C129.846 220.934 129.1 221.226 128.326 221.227H87.4037C86.6371 221.227 85.8981 220.941 85.3305 220.426C84.7632 219.91 84.4083 219.202 84.3356 218.438C84.2942 218.011 84.3427 217.579 84.4782 217.171C84.6136 216.764 84.8326 216.388 85.1219 216.07C85.4107 215.752 85.7631 215.498 86.156 215.324C86.5489 215.15 86.974 215.061 87.4037 215.061H128.326C128.752 215.061 129.173 215.149 129.563 215.32C129.953 215.49 130.304 215.74 130.592 216.053C130.881 216.366 131.102 216.736 131.241 217.138C131.379 217.541 131.433 217.968 131.398 218.392Z" stroke="#98BB63" stroke-width="2" stroke-miterlimit="10"/>
<path d="M109.144 215.061C109.144 213.765 112.45 197.567 109.708 183.205C108.208 175.33 104.885 168.006 98.2007 163.977" stroke="#98BB63" stroke-width="2" stroke-miterlimit="10"/>
<path d="M109.708 183.206C109.708 183.206 110.465 172.3 119.899 171.543" stroke="#98BB63" stroke-width="2" stroke-miterlimit="10"/>
<path d="M110.711 199.854C110.711 199.854 114.239 197.016 119.907 197.204" stroke="#98BB63" stroke-width="2" stroke-miterlimit="10"/>
<path d="M110.711 192.108C110.711 192.108 103.86 183.995 92.9172 190.411" stroke="#98BB63" stroke-width="2" stroke-miterlimit="10"/>
<path d="M105.892 188.845C105.892 188.845 90.4677 174.75 87.4456 193.807C87.4456 193.807 91.7844 196.636 98.2007 193.807C104.617 190.977 105.892 188.845 105.892 188.845Z" stroke="#98BB63" stroke-width="2" stroke-miterlimit="10"/>
<path d="M113.102 174.867C113.102 174.867 112.542 168.526 119.899 166.448C127.256 164.371 131.407 173.053 131.407 173.053C131.407 173.053 125.738 179.323 113.102 174.867Z" stroke="#98BB63" stroke-width="2" stroke-miterlimit="10"/>
<path d="M114.804 197.197C114.804 197.197 114.553 190.784 123.105 192.11C131.658 193.435 133.045 200.724 133.045 200.724C133.045 200.724 119.034 205.866 114.804 197.87" stroke="#98BB63" stroke-width="2" stroke-miterlimit="10"/>
<path d="M104.5 169.925C104.5 170.381 98.0669 169.352 97.6573 169.231C94.539 168.303 92.3278 166.142 90.8731 163.287C90.4259 162.405 87.8301 157.435 88.5658 156.574C88.5658 156.574 103.869 151.654 104.5 169.925Z" stroke="#98BB63" stroke-width="2" stroke-miterlimit="10"/>
<path d="M105.382 80.7998H110.352C122.503 80.8006 134.155 85.6285 142.747 94.2205C151.338 102.813 156.165 114.466 156.165 126.617V207.684H59.5649V126.617C59.5649 114.465 64.392 102.812 72.9844 94.2193C81.5768 85.6269 93.2307 80.7998 105.382 80.7998Z" stroke="#98BB63" stroke-width="2" stroke-miterlimit="10"/>
<path d="M115.384 188.844H115.351" stroke="#98BB63" stroke-width="2" stroke-miterlimit="10"/>
<path d="M89.5942 188.844H73.915V133.606C73.9146 129.147 74.7924 124.731 76.4983 120.611C78.2046 116.491 80.7054 112.747 83.8584 109.594C87.0114 106.44 90.7546 103.939 94.8744 102.232C98.9942 100.526 103.41 99.6475 107.869 99.6475C116.875 99.6475 125.513 103.225 131.881 109.593C138.25 115.962 141.827 124.599 141.827 133.606V188.844H111.284" stroke="#98BB63" stroke-width="2" stroke-miterlimit="10"/>
<path d="M214.986 355.25C214.986 349.868 213.925 344.539 211.865 339.567C209.804 334.595 206.784 330.078 202.977 326.274C199.17 322.47 194.651 319.453 189.678 317.396C184.704 315.339 179.374 314.282 173.992 314.286C173.666 314.286 173.299 314.286 172.96 314.316C162.35 314.586 152.259 318.964 144.812 326.527C137.366 334.09 133.146 344.248 133.041 354.862C132.819 377.626 152.144 396.244 174.904 396.244H340.043C340.724 396.244 341.385 396.214 342.049 396.156C355.371 395.153 366.034 384.105 366.005 370.549C366.005 361.374 363.601 349.72 358.113 335.366C357.862 334.701 357.599 334.024 357.331 333.347C337.685 283.693 365.625 235.205 365.625 235.205C366.523 233.746 367.409 232.279 368.279 230.782C369.796 228.17 371.288 225.545 372.718 222.891C377.26 214.521 381.25 205.864 384.664 196.975C389.621 183.914 392.662 170.205 393.693 156.274C394.193 149.611 394.213 142.921 393.752 136.256C393.442 131.864 392.927 127.523 392.205 123.231C388.861 103.689 380.965 85.4396 368.128 71.1607C360.338 62.4697 350.851 55.4653 340.252 50.5784C333.606 47.4923 326.627 45.1812 319.452 43.6898C312.608 42.205 305.507 42.3898 298.75 44.2282C291.993 46.0669 285.777 49.505 280.628 54.2526C273.71 60.623 269.079 68.8116 263.678 76.3774L263.578 76.5279" stroke="#98BB63" stroke-width="2" stroke-miterlimit="10"/>
<path d="M172.96 314.303C172.868 313.078 172.855 289.683 172.855 288.429C172.855 253.63 203.181 225.428 240.571 225.428H342.095C351.092 225.413 359.998 227.219 368.279 230.736" stroke="#98BB63" stroke-width="2" stroke-miterlimit="10"/>
<path d="M180.083 396.21H85.7151C83.8098 396.218 81.9577 395.581 80.4596 394.403C78.9619 393.225 77.906 391.576 77.4638 389.722C75.9381 383.185 71.7998 371.819 61.4961 352.278C61.1743 351.672 60.8566 351.07 60.518 350.447C55.1467 340.365 48.1787 328.189 39.2 313.5C2.508 253.621 41.0852 200.322 59.5566 180.016" stroke="#98BB63" stroke-width="2" stroke-miterlimit="10"/>
<path d="M358.113 335.335H209.882" stroke="#98BB63" stroke-width="2" stroke-miterlimit="10"/>
<path d="M156.165 125.944C156.165 125.944 184.417 140.695 214.823 125.944" stroke="#98BB63" stroke-width="2" stroke-miterlimit="10"/>
<path d="M323.361 170.234C323.357 170.245 323.357 170.256 323.361 170.267C323.327 170.021 323.294 169.778 323.244 169.532L323.361 170.234Z" fill="#2E2E2E"/>
<path d="M207.01 388.322L245.257 388.794C245.257 387.753 245.257 386.825 245.224 386.202C245.094 383.757 241.558 311.213 241.558 311.213C241.558 311.213 240.576 283.926 265.652 268.159C265.652 268.159 268.339 285.213 274.848 309.357C281.356 333.501 293.821 359.141 302.214 372.249C309.454 383.535 313.203 386.955 312.292 387.715H338.242L331.591 371.025C331.591 371.025 324.305 352.666 320.247 334.717C316.188 316.768 308.363 285.958 315.289 260.154C322.153 234.573 328.364 200.961 323.377 170.36C323.474 171.028 323.524 174.372 314.62 175.121C304.693 175.957 305.508 180.747 304.588 183.125C303.669 185.504 302.03 203.536 267.859 214.831L262.922 217.071C262.922 217.071 245.182 224.633 243.552 226.785C241.922 228.938 238.808 230.355 238.402 227.258C237.997 224.16 236.772 219.353 233.967 225.105C231.162 230.857 207.428 271.16 203.09 286.794C198.751 302.427 207.136 326.148 207.136 326.148L220.47 388.405C220.47 388.405 212.081 387.966 207.01 388.322Z" fill="#2E2E2E"/>
<path d="M237.09 219.759L211.249 268.247C203.002 283.713 200.49 295.111 204.176 312.279L220.478 388.409H205.535C205.035 388.409 204.54 388.508 204.078 388.699C203.617 388.891 203.197 389.171 202.844 389.525C202.49 389.878 202.21 390.298 202.019 390.76C201.828 391.222 201.731 391.717 201.731 392.217C201.731 392.717 201.828 393.212 202.019 393.673C202.21 394.135 202.49 394.555 202.844 394.908C203.197 395.261 203.617 395.541 204.078 395.732C204.54 395.923 205.035 396.022 205.535 396.021H245.746L241.566 317.153C241.162 309.374 242.233 301.589 244.722 294.209C248.33 283.512 255.883 274.592 265.647 268.932" stroke="#70B050" stroke-width="2" stroke-miterlimit="10"/>
<path d="M231.768 56.1332L212.06 90.6224L229.449 101.49L241.332 62.3656L236.291 55.8239C236.018 55.4682 235.661 55.1852 235.252 55.0004C234.843 54.8161 234.395 54.7354 233.947 54.7659C233.499 54.7965 233.066 54.9373 232.686 55.176C232.306 55.4147 231.991 55.7436 231.768 56.1332Z" stroke="#70B050" stroke-width="2" stroke-miterlimit="10"/>
<path d="M215.299 93.214C215.299 93.214 204.31 135.725 242.022 199.135" stroke="#70B050" stroke-width="2" stroke-miterlimit="10"/>
<path d="M219.534 252.69C217.494 256.147 215.864 258.542 215.049 258.918C212.457 260.172 213.678 252.51 214.593 248.614M214.593 248.614C214.914 247.959 215.145 247.263 215.278 246.545C215.278 246.039 214.969 247.018 214.593 248.614ZM214.593 248.614C213.57 250.985 212.399 253.288 211.086 255.511C209.197 258.705 206.931 261.903 204.845 263.453C203.783 264.252 202.755 264.611 201.877 264.352C196.531 262.755 202.985 250.658 204.845 247.415C205.138 246.892 205.318 246.6 205.318 246.6C207.567 243.426 209.5 240.039 211.09 236.488C213.071 232.087 214.696 227.534 215.951 222.874" stroke="#70B050" stroke-width="2" stroke-miterlimit="10"/>
<path d="M220.102 201.079C222.485 181.241 221.619 161.561 220.349 150.785" stroke="#70B050" stroke-width="2" stroke-miterlimit="10"/>
<path d="M223.413 209.619L221.122 214.087C221.156 214.087 221.172 214.054 221.201 214.087L223.413 209.619Z" fill="#70B050"/>
<path d="M215.504 209.418L215.458 209.548C215.473 209.502 215.494 209.458 215.521 209.418H215.504Z" fill="#70B050"/>
<path d="M241.328 62.3652C244.212 63.8491 247 65.3999 249.688 66.9632C251.644 68.1044 253.55 69.2622 255.406 70.4201L256.338 71.0053C344.679 127.017 326.943 215.951 315.276 260.146C302.235 309.604 341.573 395.996 341.573 395.996H299.037C298.007 395.997 297.017 395.599 296.275 394.884C295.533 394.17 295.097 393.196 295.058 392.167C295.037 391.635 295.123 391.104 295.312 390.606C295.499 390.108 295.786 389.652 296.153 389.266C296.52 388.88 296.96 388.572 297.449 388.36C297.937 388.147 298.463 388.035 298.995 388.029L312.455 387.879C293.265 361.239 276.925 323.582 270.053 290.426C268.03 280.662 266.63 277.744 265.652 268.907C263.733 251.501 263.253 233.967 264.218 216.482" stroke="#70B050" stroke-width="2" stroke-miterlimit="10"/>
<path d="M231.091 57.3246C227.585 55.6944 223.963 54.1143 220.223 52.5844C220.223 52.5844 223.81 38.987 216.524 31.7974" stroke="#70B050" stroke-width="2" stroke-miterlimit="10"/>
<path d="M171.635 47.5931C168.947 55.418 169.027 64.2713 169.403 71.8663L179.184 71.0303" stroke="#70B050" stroke-width="2" stroke-miterlimit="10"/>
<path d="M179.184 71.0592C179.184 71.0592 179.251 90.9225 198.475 87.6329C200.821 87.2734 203.078 86.4721 205.125 85.2712C214.38 79.6073 213.623 65.9846 209.067 57.6414C207.696 55.1334 199.077 41.1012 206.354 40.3739C214.505 39.5379 213.962 51.5135 213.69 52.6003H220.215" stroke="#70B050" stroke-width="2" stroke-miterlimit="10"/>
<path d="M182.021 45.98H181.989" stroke="#70B050" stroke-width="2" stroke-miterlimit="10"/>
<path d="M164.136 46.4189C164.253 47.4974 165.231 47.8234 166.176 47.8401H166.502C168.174 47.8401 169.909 47.7398 171.635 47.5935C174.578 47.3795 177.503 46.9715 180.392 46.373C180.927 46.2559 181.45 46.1263 181.989 45.9968C181.989 45.9968 181.989 45.9968 182.022 45.9968C182.231 45.9633 182.44 45.9299 182.641 45.8839C187.048 45.0195 191.388 43.8361 195.624 42.3435C201.239 40.337 206.737 38.0134 212.089 35.3838C212.507 35.1707 212.988 34.9449 213.427 34.6983C213.427 34.6983 213.427 34.6649 213.427 34.6523C214.338 32.7421 213.916 30.3469 212.645 28.6331C211.341 26.7939 209.251 25.6361 207.102 24.9004C202.308 23.2535 196.995 23.5001 192.104 24.8711C187.214 26.2422 182.737 28.7167 178.486 31.4546C175.392 33.4062 172.445 35.58 169.666 37.9587C168.83 38.7947 168.086 39.6307 167.338 40.4667C166.211 41.7216 165.267 43.1289 164.533 44.6466C164.261 45.1971 164.125 45.8049 164.136 46.4189Z" fill="#2B5E2E"/>
<path d="M195.624 42.343C191.385 43.8361 187.043 45.0195 182.632 45.8835C182.419 45.9294 182.214 45.9629 182.014 45.9963H181.98C181.441 46.1259 180.919 46.2555 180.384 46.3725C177.494 46.9715 174.569 47.3791 171.627 47.5931C169.9 47.7394 168.174 47.823 166.493 47.8397H166.167C165.223 47.8397 164.245 47.4969 164.128 46.4185C164.115 45.8162 164.243 45.2193 164.504 44.6754C165.238 43.1577 166.182 41.7504 167.309 40.4956C171.334 35.7847 176.308 31.9516 181.521 28.6118C185.801 25.8614 190.303 23.4077 195.206 22.0158C200.109 20.6238 205.393 20.4023 210.187 22.0492C212.34 22.7807 214.426 23.9386 215.746 25.782C217 27.4916 217.418 29.8909 216.528 31.797C216.479 31.9301 216.413 32.0565 216.332 32.1732C215.42 33.7198 213.723 34.6018 212.11 35.3834C206.751 38.0137 201.246 40.3374 195.624 42.343Z" stroke="#70B050" stroke-width="2" stroke-miterlimit="10"/>
<path d="M195.624 42.3439C195.887 46.4152 195.683 53.4251 199.114 58.6082C200.313 60.307 200.995 62.3159 201.079 64.3934C201.125 67.8084 200.072 72.2727 194.391 72.6907C189.981 73.0125 185.195 70.3206 179.176 71.0521C179.176 71.0521 183.456 70.1074 183.046 65.4217" stroke="#70B050" stroke-width="2" stroke-miterlimit="10"/>
<path d="M216.06 208.285C215.976 208.465 215.897 208.64 215.797 208.837L215.504 209.426L215.458 209.556L214.492 211.528C214.2 212.13 213.891 212.732 213.598 213.355C213.339 213.873 213.075 214.396 212.833 214.918C212.637 215.311 212.457 215.683 212.277 216.06L211.023 218.718C210.814 219.306 210.768 219.939 210.892 220.55C211.016 221.162 211.304 221.728 211.725 222.187C211.965 222.46 212.247 222.691 212.561 222.873C212.993 223.115 213.471 223.262 213.964 223.305C214.457 223.348 214.953 223.286 215.42 223.123C215.887 222.959 216.314 222.699 216.674 222.358C217.032 222.017 217.315 221.605 217.502 221.147L221.139 214.087L223.438 209.618L221.218 214.07L219.245 217.999C219.091 218.354 219.029 218.741 219.064 219.126C219.099 219.511 219.231 219.88 219.448 220.2C219.664 220.52 219.958 220.781 220.302 220.957C220.645 221.134 221.028 221.22 221.415 221.209C224.478 221.03 226.468 217.865 227.969 215.604C228.115 215.374 228.261 215.132 228.424 214.885C229.436 213.338 230.69 211.541 232.517 211.123C233.006 211.017 233.501 210.945 234 210.91C236.508 210.764 238.369 211.746 241.14 212.247C241.955 212.394 242.77 212.527 243.585 212.64" stroke="#70B050" stroke-width="2" stroke-miterlimit="10"/>
<path d="M279.93 209.36L280.633 209.05C287.788 205.939 293.976 200.961 298.548 194.638C316.447 170.089 305.934 130.491 291.409 106.64C281.611 90.5681 266.237 76.1889 249.709 66.9762" stroke="#70B050" stroke-width="2" stroke-miterlimit="10"/>
<path d="M245.207 123.088L262.763 150.835C271.713 164.984 268.615 181.696 255.816 192.472C251.594 196.025 244.53 199.544 235.359 200.117C231.852 200.326 226.669 200.589 223.162 200.849C222.171 200.932 221.143 200.978 220.115 201.078C217.945 201.275 215.763 201.584 213.79 202.399C212.108 203.125 210.679 204.332 209.681 205.869C207.938 208.577 205.965 211.236 204.904 214.317C204.395 215.871 204.196 217.51 204.318 219.14C204.347 220.106 204.718 221.03 205.363 221.749C205.766 222.151 206.294 222.404 206.86 222.468C208.31 222.677 209.368 221.602 210.12 220.411C210.398 219.962 210.644 219.494 210.856 219.011C211.245 218.175 211.734 217.167 212.29 216.06C212.469 215.683 212.649 215.311 212.846 214.918C213.088 214.396 213.351 213.873 213.611 213.355C213.903 212.732 214.213 212.13 214.505 211.528C214.848 210.843 215.174 210.174 215.471 209.555C215.486 209.51 215.507 209.466 215.533 209.426C215.634 209.213 215.73 209.008 215.809 208.837C215.889 208.665 215.989 208.465 216.073 208.285V208.251C216.169 208.055 216.269 207.858 216.349 207.679" stroke="#70B050" stroke-width="2" stroke-miterlimit="10"/>
<path d="M211.395 77.0378L214.902 85.6612" stroke="#70B050" stroke-width="2" stroke-miterlimit="10"/>
<path d="M235.334 200.118C235.334 200.118 246.01 208.269 245.195 225.114L280.62 209.05" stroke="#70B050" stroke-width="2" stroke-miterlimit="10"/>
<path d="M245.207 225.115C245.207 225.115 242.152 229.939 239.502 225.115C236.851 220.291 233.976 210.924 233.976 210.924" stroke="#70B050" stroke-width="2" stroke-miterlimit="10"/>
<path d="M306.302 177.382L322.976 172.851" stroke="#70B050" stroke-width="2" stroke-miterlimit="10"/>
<path d="M226.694 239.263C226.694 239.263 219.5 229.983 213.811 231.35" stroke="#70B050" stroke-width="2" stroke-miterlimit="10"/>
<path d="M228.399 214.886C230.572 215.816 232.426 217.361 233.732 219.33C235.039 221.3 235.74 223.608 235.752 225.972V228.229C235.752 229.06 236.082 229.857 236.67 230.446C237.258 231.033 238.056 231.364 238.887 231.364C239.718 231.364 240.516 231.033 241.104 230.446C241.692 229.857 242.022 229.06 242.022 228.229V225.972C242.01 222.998 241.271 220.073 239.87 217.45C238.469 214.827 236.448 212.587 233.984 210.924C233.485 210.959 232.989 211.03 232.5 211.137C230.665 211.547 229.411 213.34 228.399 214.886Z" fill="#2B5E2E"/>
<path d="M203.85 218.898C203.784 220.361 203.888 221.827 204.16 223.266L237.056 397.1H243.715L210.275 222.108C210.16 221.55 210.1 220.982 210.095 220.411C209.347 221.603 208.285 222.677 206.835 222.468C206.269 222.405 205.741 222.151 205.338 221.749C204.693 221.03 204.322 220.106 204.293 219.141C204.138 219.074 203.99 218.993 203.85 218.898Z" fill="#2B5E2E"/>
<path d="M228.399 214.886C230.572 215.816 232.426 217.361 233.732 219.33C235.039 221.3 235.74 223.608 235.752 225.972V228.229C235.752 229.06 236.082 229.857 236.67 230.446C237.258 231.033 238.056 231.364 238.887 231.364C239.718 231.364 240.516 231.033 241.104 230.446C241.692 229.857 242.022 229.06 242.022 228.229V225.972C242.01 222.998 241.271 220.073 239.87 217.45C238.469 214.827 236.448 212.587 233.984 210.924C233.485 210.959 232.989 211.03 232.5 211.137C230.665 211.547 229.411 213.34 228.399 214.886Z" stroke="#70B050" stroke-width="2" stroke-miterlimit="10"/>
<path d="M203.85 218.898C203.784 220.361 203.888 221.827 204.16 223.266L236.889 396.214L243.506 396.017L210.287 222.129C210.173 221.57 210.113 221.002 210.108 220.432C209.36 221.624 208.298 222.698 206.847 222.489C206.281 222.426 205.754 222.172 205.351 221.77C204.705 221.051 204.335 220.127 204.306 219.162C204.146 219.089 203.993 219.001 203.85 218.898Z" stroke="#70B050" stroke-width="2" stroke-miterlimit="10"/>
<path d="M341.602 396.017H115.602" stroke="#70B050" stroke-width="2" stroke-miterlimit="10"/>
<path d="M174.895 53.02C174.895 53.02 180.329 50.6207 183.736 53.5509" stroke="#70B050" stroke-width="2" stroke-miterlimit="10"/>
<path d="M178.33 58.6747C179.18 58.5104 179.758 57.8044 179.622 57.0971C179.485 56.3899 178.686 55.9493 177.836 56.1136C176.986 56.2774 176.407 56.9839 176.544 57.6911C176.68 58.3984 177.48 58.8385 178.33 58.6747Z" fill="#70B050"/>
</svg>
