<?xml version="1.0" encoding="UTF-8"?>
<svg xmlns="http://www.w3.org/2000/svg" style="display: none;">
  <!-- Money Bag Icon -->
  <symbol id="money-bag" viewBox="0 0 24 24">
    <path d="M12 2C6.48 2 2 6.48 2 12s4.48 10 10 10 10-4.48 10-10S17.52 2 12 2zm0 18c-4.41 0-8-3.59-8-8s3.59-8 8-8 8 3.59 8 8-3.59 8-8 8zm.31-8.86c-1.77-.45-2.34-.94-2.34-1.67 0-.84.79-1.43 2.1-1.43 1.38 0 1.9.66 1.94 1.64h1.71c-.05-1.34-.87-2.57-2.49-2.97V5H10.9v1.69c-1.51.32-2.72 1.3-2.72 2.81 0 1.79 1.49 2.69 3.66 3.21 1.95.46 2.34 1.15 2.34 1.87 0 .53-.39 1.39-2.1 1.39-1.6 0-2.23-.72-2.32-1.64H8.04c.1 1.7 1.36 2.66 2.86 2.97V19h2.34v-1.67c1.52-.29 2.72-1.16 2.73-2.77-.01-2.2-1.9-2.96-3.66-3.42z" />
  </symbol>
  
  <!-- Globe Icon -->
  <symbol id="globe" viewBox="0 0 24 24">
    <path d="M12 2C6.48 2 2 6.48 2 12s4.48 10 10 10 10-4.48 10-10S17.52 2 12 2zm-1 17.93c-3.95-.49-7-3.85-7-7.93 0-.62.08-1.21.21-1.79L9 15v1c0 1.1.9 2 2 2v1.93zm6.9-2.54c-.26-.81-1-1.39-1.9-1.39h-1v-3c0-.55-.45-1-1-1H8v-2h2c.55 0 1-.45 1-1V7h2c1.1 0 2-.9 2-2v-.41c2.93 1.19 5 4.06 5 7.41 0 2.08-.8 3.97-2.1 5.39z" />
  </symbol>
  
  <!-- Pin/Location Icon -->
  <symbol id="location" viewBox="0 0 24 24">
    <path d="M12 2C8.13 2 5 5.13 5 9c0 5.25 7 13 7 13s7-7.75 7-13c0-3.87-3.13-7-7-7zm0 9.5c-1.38 0-2.5-1.12-2.5-2.5s1.12-2.5 2.5-2.5 2.5 1.12 2.5 2.5-1.12 2.5-2.5 2.5z" />
  </symbol>
  
  <!-- Eco/Leaf Icon -->
  <symbol id="eco" viewBox="0 0 24 24">
    <path d="M12 22c4.97 0 9-4.03 9-9-4.97 0-9 4.03-9 9zM5.6 10.25c0 1.38 1.12 2.5 2.5 2.5.53 0 1.01-.16 1.42-.44l-.02.19c0 1.38 1.12 2.5 2.5 2.5s2.5-1.12 2.5-2.5l-.02-.19c.4.28.89.44 1.42.44 1.38 0 2.5-1.12 2.5-2.5 0-1-.59-1.85-1.43-2.25.84-.4 1.43-1.25 1.43-2.25 0-1.38-1.12-2.5-2.5-2.5-.53 0-1.01.16-1.42.44l.02-.19C14.5 2.12 13.38 1 12 1S9.5 2.12 9.5 3.5l.02.19c-.4-.28-.89-.44-1.42-.44-1.38 0-2.5 1.12-2.5 2.5 0 1 .59 1.85 1.43 2.25-.84.4-1.43 1.25-1.43 2.25zM12 5.5c1.38 0 2.5 1.12 2.5 2.5s-1.12 2.5-2.5 2.5S9.5 9.38 9.5 8s1.12-2.5 2.5-2.5z" />
  </symbol>
  
  <!-- 24h Icon -->
  <symbol id="clock" viewBox="0 0 24 24">
    <path d="M12 2C6.5 2 2 6.5 2 12s4.5 10 10 10 10-4.5 10-10S17.5 2 12 2zm0 18c-4.41 0-8-3.59-8-8s3.59-8 8-8 8 3.59 8 8-3.59 8-8 8zm.5-13H11v6l5.2 3.2.8-1.3-4.5-2.7V7z" />
  </symbol>
</svg> 